<?xml version="1.0" encoding="utf-8"?>
<!-- Generator: Adobe Illustrator 25.3.1, SVG Export Plug-In . SVG Version: 6.00 Build 0)  -->
<svg version="1.1" id="Ebene_1" focusable="false" xmlns="http://www.w3.org/2000/svg" xmlns:xlink="http://www.w3.org/1999/xlink"
	 x="0px" y="0px" width="512px" height="512px" viewBox="0 0 512 512" style="enable-background:new 0 0 512 512;"
	 xml:space="preserve">
<style type="text/css">
	.st0{fill:#00AE99;}
</style>
<path class="st0" d="M457,344.4c-25,20.3-52.6,37.2-82.5,49l54.4,94.2l54,23c9.8,4.2,20.9-2.2,22.2-12.8l7-58.2L457,344.4z
	 M499.5,249.9c4.9-7.7,1.9-18-6-22.4l-28.1-15.6c-7.5-4.1-16.6-1.5-21.3,5.7C403,281.1,332.2,320,256,320
	c-23.9,0-47.2-4.2-69.4-11.5l67.4-116.7c0.7,0,1.3,0.2,2,0.2c0.7,0,1.4-0.2,2-0.2l51.1,88.5c31.2-9,59.6-25.8,82.6-48.9l-51.8-89.7
	c7.5-13.6,12.1-29,12.1-45.7c0-53-43-96-96-96s-96,43-96,96c0,16.6,4.6,32,12.1,45.7L103.8,260c-12.6-11.6-24-24.6-33.7-39
	c-4.8-7.1-14-9.6-21.4-5.3l-27.8,16.1c-7.9,4.5-10.6,14.9-5.6,22.5c15.6,23.6,34.7,44.2,56,62L0,439.7l7,58.2
	c1.3,10.6,12.4,17,22.2,12.8l53.9-23L153.9,365c32.2,12.2,66.7,19,102.1,19C355,384,446.9,333,499.5,249.9L499.5,249.9z M256,64
	c17.7,0,32,14.3,32,32s-14.3,32-32,32s-32-14.3-32-32S238.3,64,256,64z"/>
</svg>
