<?xml version="1.0" encoding="utf-8"?>
<!-- Generator: Adobe Illustrator 25.3.1, SVG Export Plug-In . SVG Version: 6.00 Build 0)  -->
<svg version="1.1" id="Ebene_1" focusable="false" xmlns="http://www.w3.org/2000/svg" xmlns:xlink="http://www.w3.org/1999/xlink"
	 x="0px" y="0px" width="576px" height="512px" viewBox="0 0 576 512" style="enable-background:new 0 0 576 512;"
	 xml:space="preserve">
<style type="text/css">
	.st0{fill:#00AE99;}
</style>
<path class="st0" d="M564,224c6.6,0,12-5.4,12-12v-72c0-6.6-5.4-12-12-12h-72c-6.6,0-12,5.4-12,12v12h-88v-24h12c6.6,0,12-5.4,12-12
	V44c0-6.6-5.4-12-12-12h-72c-6.6,0-12,5.4-12,12v12H96V44c0-6.6-5.4-12-12-12H12C5.4,32,0,37.4,0,44v72c0,6.6,5.4,12,12,12h12v160
	H12c-6.6,0-12,5.4-12,12v72c0,6.6,5.4,12,12,12h72c6.6,0,12-5.4,12-12v-12h88v24h-12c-6.6,0-12,5.4-12,12v72c0,6.6,5.4,12,12,12h72
	c6.6,0,12-5.4,12-12v-12h224v12c0,6.6,5.4,12,12,12h72c6.6,0,12-5.4,12-12v-72c0-6.6-5.4-12-12-12h-12V224H564z M352,64h32v32h-32
	V64z M352,320h32v32h-32V320z M64,352H32v-32h32V352z M64,96H32V64h32V96z M96,312v-12c0-6.6-5.4-12-12-12H72V128h12
	c6.6,0,12-5.4,12-12v-12h224v12c0,6.6,5.4,12,12,12h12v160h-12c-6.6,0-12,5.4-12,12v12H96z M224,448h-32v-32h32V448z M504,384h-12
	c-6.6,0-12,5.4-12,12v12H256v-12c0-6.6-5.4-12-12-12h-12v-24h88v12c0,6.6,5.4,12,12,12h72c6.6,0,12-5.4,12-12v-72
	c0-6.6-5.4-12-12-12h-12v-88h88v12c0,6.6,5.4,12,12,12h12V384z M544,448h-32v-32h32V448z M544,192h-32v-32h32V192z"/>
</svg>
